<svg xmlns:xlink="http://www.w3.org/1999/xlink"  width="32" height="32" viewBox="0 0 32 32" fill="none" xmlns="http://www.w3.org/2000/svg"><path d="M21.3332 17.3334C17.6513 17.3334 14.6665 15.841 14.6665 14.0001C14.6665 12.1591 17.6513 10.6667 21.3332 10.6667C25.015 10.6667 27.9998 12.1591 27.9998 14.0001C27.9998 15.841 25.015 17.3334 21.3332 17.3334Z" stroke="#1E1E1E" stroke-width="1.5" stroke-linecap="round" stroke-linejoin="round"></path><path d="M14.6665 19.3333C14.6665 21.1742 17.6513 22.6666 21.3332 22.6666C25.015 22.6666 27.9998 21.1742 27.9998 19.3333" stroke="#1E1E1E" stroke-width="1.5" stroke-linecap="round" stroke-linejoin="round"></path><path d="M4 12.6667C4 14.5077 6.98477 16.0001 10.6667 16.0001C12.1678 16.0001 13.5529 15.7521 14.6673 15.3334" stroke="#1E1E1E" stroke-width="1.5" stroke-linecap="round" stroke-linejoin="round"></path><path d="M4 17.3333C4 19.1742 6.98477 20.6666 10.6667 20.6666C12.1675 20.6666 13.5524 20.4186 14.6667 20.0002" stroke="#1E1E1E" stroke-width="1.5" stroke-linecap="round" stroke-linejoin="round"></path><path d="M4 7.33325V21.9999C4 23.8409 6.98477 25.3333 10.6667 25.3333C12.1675 25.3333 13.5524 25.0851 14.6667 24.6666" stroke="#1E1E1E" stroke-width="1.5" stroke-linecap="round" stroke-linejoin="round"></path><path d="M17.3335 11.3333V7.33325" stroke="#1E1E1E" stroke-width="1.5" stroke-linecap="round" stroke-linejoin="round"></path><path d="M14.6665 14V24.6667C14.6665 26.5076 17.6513 28 21.3332 28C25.015 28 27.9998 26.5076 27.9998 24.6667V14" stroke="#1E1E1E" stroke-width="1.5" stroke-linecap="round" stroke-linejoin="round"></path><path d="M10.6667 10.6667C6.98477 10.6667 4 9.17428 4 7.33333C4 5.49239 6.98477 4 10.6667 4C14.3485 4 17.3333 5.49239 17.3333 7.33333C17.3333 9.17428 14.3485 10.6667 10.6667 10.6667Z" stroke="#1E1E1E" stroke-width="1.5" stroke-linecap="round" stroke-linejoin="round"></path></svg>