<svg xmlns:xlink="http://www.w3.org/1999/xlink" width="15" height="15" viewBox="0 0 20 20" fill="none"
    xmlns="http://www.w3.org/2000/svg">
    <path
        d="M19.0908 3.63647H18.1817V5.45466V7.27284V18.1819H9.80453V18.182H3.63623V19.091C3.63623 19.5931 4.04326 20.0001 4.54532 20.0001H19.0908C19.5928 20.0001 19.9999 19.5931 19.9999 19.091V4.54557C19.9999 4.0435 19.5928 3.63647 19.0908 3.63647Z"
        fill="#2dc7c2"></path>
    <path
        d="M5.45455 16.3637V16.3636H15.4545C15.9566 16.3636 16.3636 15.9566 16.3636 15.4545V7.27273V5.45455V3.63636V2.92261V0.909091C16.3636 0.40703 15.9566 0 15.4545 0H0.909091C0.40703 0 0 0.40703 0 0.909091V15.4545C0 15.9566 0.40703 16.3636 0.909091 16.3636H3.63636V16.3637H5.45455Z"
        fill="#2dc7c2"></path>
</svg>