<svg xmlns:xlink="http://www.w3.org/1999/xlink" width="36" height="20" viewBox="0 0 36 20" fill="none"
    xmlns="http://www.w3.org/2000/svg" class="text-black w-[24.31px]">
    <path fill-rule="evenodd" clip-rule="evenodd"
        d="M9.32368 10.1167H7.38188V10.1167H1.93784C1.01862 10.1167 0.273438 10.8619 0.273438 11.7811V12.5101C0.273438 12.8697 0.389913 13.2197 0.605426 13.5076L4.42061 18.604C4.73488 19.0238 5.22862 19.2709 5.75303 19.2709H7.65923C8.57845 19.2709 9.32363 18.5257 9.32363 17.6065V11.8505H9.32368V10.1167Z"
        fill="#2dc7c2"></path>
    <path
        d="M4.78452 4.32572L15.5163 18.1421C15.8316 18.548 16.3167 18.7855 16.8307 18.7855H18.686C19.6052 18.7855 20.3504 18.0403 20.3504 17.1211V10.5131C20.3504 10.1438 20.2276 9.78493 20.0012 9.49308L14.0192 1.78022C13.7039 1.37373 13.2184 1.13586 12.704 1.13586H6.09897C5.17975 1.13586 4.43457 1.88104 4.43457 2.80027V3.30472C4.43457 3.67448 4.5577 4.03371 4.78452 4.32572Z"
        fill="#2dc7c2"></path>
    <path
        d="M20.1079 9.4367V3.24767C20.1079 2.75426 20.2652 2.27371 20.557 1.87582C20.994 1.27991 21.6888 0.927856 22.4277 0.927856H23.2699C24.0084 0.927856 24.7042 1.27385 25.1499 1.86268L35.3032 15.2762C35.6132 15.6858 35.781 16.1855 35.781 16.6993V16.7731C35.781 17.3313 35.5708 17.869 35.1922 18.2792C34.7718 18.7346 34.1803 18.9936 33.5605 18.9936H28.1507C27.4292 18.9936 26.7474 18.6632 26.3002 18.097L20.6153 10.898C20.2867 10.4818 20.1079 9.967 20.1079 9.4367Z"
        fill="#2dc7c2"></path>
</svg>