<svg xmlns:xlink="http://www.w3.org/1999/xlink"  width="32" height="32" viewBox="0 0 32 32" fill="none" xmlns="http://www.w3.org/2000/svg"><path d="M16.0002 28.6667C22.9958 28.6667 28.6668 22.9956 28.6668 16C28.6668 9.00444 22.9958 3.33337 16.0002 3.33337C9.00456 3.33337 3.3335 9.00444 3.3335 16C3.3335 22.9956 9.00456 28.6667 16.0002 28.6667Z" stroke="#292929" stroke-width="1.5625" stroke-linecap="round" stroke-linejoin="round"></path><path d="M8.49854 26.2038C9.20982 24.8278 10.2858 23.6739 11.6089 22.8684C12.932 22.063 14.4511 21.637 16 21.637C17.5489 21.637 19.068 22.063 20.3911 22.8684C21.7143 23.6739 22.7901 24.8278 23.5015 26.2038" stroke="#292929" stroke-width="1.5625" stroke-linecap="round" stroke-linejoin="round"></path><path d="M16.0001 17.4075C18.503 17.4075 20.5319 15.3785 20.5319 12.8756C20.5319 10.3727 18.503 8.34375 16.0001 8.34375C13.4971 8.34375 11.4683 10.3727 11.4683 12.8756C11.4683 15.3785 13.4971 17.4075 16.0001 17.4075Z" stroke="#292929" stroke-width="1.5625" stroke-linecap="round" stroke-linejoin="round"></path></svg>