<svg xmlns:xlink="http://www.w3.org/1999/xlink"  width="32" height="32" viewBox="0 0 32 32" fill="none" xmlns="http://www.w3.org/2000/svg"><path d="M25.3333 26.6666H6.66667C5.19391 26.6666 4 25.4727 4 23.9999V11.9999C4 10.5272 5.19391 9.33325 6.66667 9.33325H25.3333C26.8061 9.33325 28 10.5272 28 11.9999V23.9999C28 25.4727 26.8061 26.6666 25.3333 26.6666Z" stroke="black" stroke-width="2"></path><path d="M22.0002 18.6666C21.632 18.6666 21.3335 18.3681 21.3335 17.9999C21.3335 17.6318 21.632 17.3333 22.0002 17.3333C22.3683 17.3333 22.6668 17.6318 22.6668 17.9999C22.6668 18.3681 22.3683 18.6666 22.0002 18.6666Z" fill="black" stroke="black" stroke-width="2" stroke-linecap="round" stroke-linejoin="round"></path><path d="M24 9.33347V7.4711C24 5.71902 22.3392 4.44303 20.6463 4.89447L5.97956 8.80559C4.81223 9.11689 4 10.1741 4 11.3822V12.0001" stroke="black" stroke-width="2"></path></svg>